<mxfile host="app.diagrams.net" modified="2020-11-18T08:01:17.165Z" agent="5.0 (Windows)" etag="h4v9EafUOOAcqemnpT2x" version="13.9.7" type="github">
  <diagram id="Nw0SB05jio4s63diTssW" name="Page-1">
    <mxGraphModel dx="358" dy="-410" grid="1" gridSize="10" guides="1" tooltips="1" connect="1" arrows="1" fold="1" page="1" pageScale="1" pageWidth="827" pageHeight="1169" math="0" shadow="0">
      <root>
        <mxCell id="0" />
        <mxCell id="1" parent="0" />
        <UserObject label="%name%" name="Unknown(new)" placeholders="1" id="1sgx2hkNMydAJYxef51p-3">
          <mxCell style="label,whiteSpace=wrap,html=1,sharp=1" vertex="1" parent="1">
            <mxGeometry x="1101.67" y="1190" width="200" height="60" as="geometry" />
          </mxCell>
        </UserObject>
        <UserObject label="%name%" name="Saved" placeholders="1" id="1sgx2hkNMydAJYxef51p-4">
          <mxCell style="label,whiteSpace=wrap,html=1,sharp=1" vertex="1" parent="1">
            <mxGeometry x="1000" y="1297" width="200" height="40" as="geometry" />
          </mxCell>
        </UserObject>
        <UserObject label="%name%" name="Submited(unapproved)" placeholders="1" id="1sgx2hkNMydAJYxef51p-5">
          <mxCell style="label,whiteSpace=wrap,html=1,sharp=1" vertex="1" parent="1">
            <mxGeometry x="1101.6666666666667" y="1480" width="200" height="100" as="geometry" />
          </mxCell>
        </UserObject>
        <mxCell id="1sgx2hkNMydAJYxef51p-6" style="edgeStyle=orthogonalEdgeStyle;rounded=0;orthogonalLoop=1;jettySize=auto;html=1;exitX=1;exitY=0.25;exitDx=0;exitDy=0;" edge="1" parent="1" source="1sgx2hkNMydAJYxef51p-8" target="1sgx2hkNMydAJYxef51p-51">
          <mxGeometry relative="1" as="geometry">
            <Array as="points">
              <mxPoint x="1300" y="1745" />
              <mxPoint x="1300" y="1660" />
              <mxPoint x="1500" y="1660" />
            </Array>
          </mxGeometry>
        </mxCell>
        <mxCell id="1sgx2hkNMydAJYxef51p-7" value="Back to edit" style="text;html=1;align=center;verticalAlign=middle;resizable=0;points=[];labelBackgroundColor=#ffffff;" vertex="1" connectable="0" parent="1sgx2hkNMydAJYxef51p-6">
          <mxGeometry x="0.8202" y="4" relative="1" as="geometry">
            <mxPoint as="offset" />
          </mxGeometry>
        </mxCell>
        <UserObject label="%name%" name="Reviewing(unapproved)" placeholders="1" id="1sgx2hkNMydAJYxef51p-8">
          <mxCell style="label,whiteSpace=wrap,html=1,sharp=1" vertex="1" parent="1">
            <mxGeometry x="1025" y="1720" width="190" height="100" as="geometry" />
          </mxCell>
        </UserObject>
        <UserObject label="%name%" name="Reject" placeholders="1" id="1sgx2hkNMydAJYxef51p-9">
          <mxCell style="label,whiteSpace=wrap,html=1,sharp=1" vertex="1" parent="1">
            <mxGeometry x="870" y="1980" width="200" height="100" as="geometry" />
          </mxCell>
        </UserObject>
        <mxCell id="1sgx2hkNMydAJYxef51p-14" style="edgeStyle=orthogonalEdgeStyle;rounded=0;orthogonalLoop=1;jettySize=auto;html=1;exitX=0.75;exitY=0;exitDx=0;exitDy=0;entryX=0.5;entryY=1;entryDx=0;entryDy=0;" edge="1" parent="1" source="1sgx2hkNMydAJYxef51p-15" target="1sgx2hkNMydAJYxef51p-51">
          <mxGeometry relative="1" as="geometry">
            <Array as="points">
              <mxPoint x="1300" y="1660" />
              <mxPoint x="1500" y="1660" />
            </Array>
          </mxGeometry>
        </mxCell>
        <UserObject label="%name%" name="Approved" placeholders="1" id="1sgx2hkNMydAJYxef51p-15">
          <mxCell style="label,whiteSpace=wrap,html=1,sharp=1" vertex="1" parent="1">
            <mxGeometry x="1150" y="1980" width="200" height="100" as="geometry" />
          </mxCell>
        </UserObject>
        <UserObject label="%name%" name="Completed" placeholders="1" id="1sgx2hkNMydAJYxef51p-17">
          <mxCell style="label,whiteSpace=wrap,html=1,sharp=1" vertex="1" parent="1">
            <mxGeometry x="880" y="2180" width="200" height="100" as="geometry" />
          </mxCell>
        </UserObject>
        <mxCell id="1sgx2hkNMydAJYxef51p-18" value="Save" style="edgeStyle=orthogonalEdgeStyle;elbow=vertical;rounded=0;endArrow=blockThin;endFill=1;fontSize=11" edge="1" parent="1" source="1sgx2hkNMydAJYxef51p-3" target="1sgx2hkNMydAJYxef51p-4">
          <mxGeometry relative="1" as="geometry">
            <Array as="points">
              <mxPoint x="1140" y="1300" />
              <mxPoint x="1140" y="1300" />
            </Array>
          </mxGeometry>
        </mxCell>
        <mxCell id="1sgx2hkNMydAJYxef51p-19" value="Submit" style="edgeStyle=orthogonalEdgeStyle;elbow=vertical;rounded=0;endArrow=blockThin;endFill=1;fontSize=11;entryX=0.75;entryY=0;entryDx=0;entryDy=0;" edge="1" parent="1" source="1sgx2hkNMydAJYxef51p-4" target="1sgx2hkNMydAJYxef51p-46">
          <mxGeometry relative="1" as="geometry">
            <Array as="points">
              <mxPoint x="1090" y="1347" />
              <mxPoint x="1090" y="1347" />
            </Array>
          </mxGeometry>
        </mxCell>
        <mxCell id="1sgx2hkNMydAJYxef51p-20" value="Reject" style="edgeStyle=orthogonalEdgeStyle;elbow=vertical;rounded=0;endArrow=blockThin;endFill=1;fontSize=11" edge="1" parent="1" source="1sgx2hkNMydAJYxef51p-8" target="1sgx2hkNMydAJYxef51p-9">
          <mxGeometry relative="1" as="geometry">
            <Array as="points">
              <mxPoint x="1063" y="1940" />
              <mxPoint x="1063" y="1940" />
            </Array>
          </mxGeometry>
        </mxCell>
        <mxCell id="1sgx2hkNMydAJYxef51p-21" value="Approve" style="edgeStyle=orthogonalEdgeStyle;elbow=vertical;rounded=0;endArrow=blockThin;endFill=1;fontSize=11" edge="1" parent="1" source="1sgx2hkNMydAJYxef51p-8" target="1sgx2hkNMydAJYxef51p-15">
          <mxGeometry relative="1" as="geometry">
            <Array as="points">
              <mxPoint x="1187" y="1920" />
              <mxPoint x="1187" y="1920" />
            </Array>
          </mxGeometry>
        </mxCell>
        <mxCell id="1sgx2hkNMydAJYxef51p-23" value="Complete" style="edgeStyle=orthogonalEdgeStyle;elbow=vertical;rounded=0;endArrow=blockThin;endFill=1;fontSize=11" edge="1" parent="1" source="1sgx2hkNMydAJYxef51p-15" target="1sgx2hkNMydAJYxef51p-17">
          <mxGeometry relative="1" as="geometry">
            <Array as="points">
              <mxPoint x="1203" y="2130" />
              <mxPoint x="1010" y="2130" />
            </Array>
          </mxGeometry>
        </mxCell>
        <mxCell id="1sgx2hkNMydAJYxef51p-24" value="Delete" style="edgeStyle=orthogonalEdgeStyle;elbow=vertical;rounded=0;endArrow=blockThin;endFill=1;fontSize=11" edge="1" parent="1" source="1sgx2hkNMydAJYxef51p-4" target="1sgx2hkNMydAJYxef51p-4">
          <mxGeometry relative="1" as="geometry" />
        </mxCell>
        <mxCell id="1sgx2hkNMydAJYxef51p-25" value="Submit" style="edgeStyle=orthogonalEdgeStyle;elbow=vertical;rounded=0;endArrow=blockThin;endFill=1;fontSize=11;entryX=1;entryY=0.5;entryDx=0;entryDy=0;" edge="1" parent="1" source="1sgx2hkNMydAJYxef51p-3" target="1sgx2hkNMydAJYxef51p-46">
          <mxGeometry x="-0.1333" y="-80" relative="1" as="geometry">
            <Array as="points">
              <mxPoint x="1265" y="1417" />
            </Array>
            <mxPoint x="80" y="-80" as="offset" />
          </mxGeometry>
        </mxCell>
        <mxCell id="1sgx2hkNMydAJYxef51p-26" value="Department reply" style="edgeStyle=orthogonalEdgeStyle;elbow=vertical;rounded=0;endArrow=blockThin;endFill=1;fontSize=11;entryX=0.001;entryY=0.401;entryDx=0;entryDy=0;entryPerimeter=0;" edge="1" parent="1" source="1sgx2hkNMydAJYxef51p-8" target="1sgx2hkNMydAJYxef51p-8">
          <mxGeometry x="-0.0042" y="10" relative="1" as="geometry">
            <Array as="points">
              <mxPoint x="965" y="1740" />
              <mxPoint x="1005" y="1760" />
            </Array>
            <mxPoint as="offset" />
          </mxGeometry>
        </mxCell>
        <mxCell id="1sgx2hkNMydAJYxef51p-27" value="Reject" style="edgeStyle=orthogonalEdgeStyle;elbow=vertical;rounded=0;endArrow=blockThin;endFill=1;fontSize=11" edge="1" parent="1" source="1sgx2hkNMydAJYxef51p-5" target="1sgx2hkNMydAJYxef51p-9">
          <mxGeometry relative="1" as="geometry">
            <Array as="points">
              <mxPoint x="1140" y="1640" />
              <mxPoint x="890" y="1640" />
            </Array>
          </mxGeometry>
        </mxCell>
        <mxCell id="1sgx2hkNMydAJYxef51p-28" value="Approve" style="edgeStyle=orthogonalEdgeStyle;elbow=vertical;rounded=0;endArrow=blockThin;endFill=1;fontSize=11" edge="1" parent="1" source="1sgx2hkNMydAJYxef51p-5" target="1sgx2hkNMydAJYxef51p-15">
          <mxGeometry y="-80" relative="1" as="geometry">
            <Array as="points">
              <mxPoint x="1260" y="1830" />
              <mxPoint x="1260" y="1830" />
            </Array>
            <mxPoint x="80" y="-80" as="offset" />
          </mxGeometry>
        </mxCell>
        <mxCell id="1sgx2hkNMydAJYxef51p-29" value="Save" style="edgeStyle=orthogonalEdgeStyle;elbow=vertical;rounded=0;endArrow=blockThin;endFill=1;fontSize=11;entryX=0;entryY=0.25;entryDx=0;entryDy=0;" edge="1" parent="1" source="1sgx2hkNMydAJYxef51p-4" target="1sgx2hkNMydAJYxef51p-4">
          <mxGeometry relative="1" as="geometry">
            <Array as="points">
              <mxPoint x="1100" y="1270" />
              <mxPoint x="940" y="1270" />
              <mxPoint x="940" y="1307" />
            </Array>
            <mxPoint x="1000" y="1292" as="targetPoint" />
          </mxGeometry>
        </mxCell>
        <mxCell id="1sgx2hkNMydAJYxef51p-30" value="Send to departments" style="edgeStyle=orthogonalEdgeStyle;elbow=vertical;rounded=0;endArrow=blockThin;endFill=1;fontSize=11" edge="1" parent="1" source="1sgx2hkNMydAJYxef51p-5" target="1sgx2hkNMydAJYxef51p-8">
          <mxGeometry relative="1" as="geometry">
            <Array as="points">
              <mxPoint x="1202" y="1740" />
              <mxPoint x="1202" y="1740" />
            </Array>
          </mxGeometry>
        </mxCell>
        <mxCell id="1sgx2hkNMydAJYxef51p-31" value="Back to edit" style="edgeStyle=orthogonalEdgeStyle;elbow=vertical;rounded=0;endArrow=blockThin;endFill=1;fontSize=11;entryX=0;entryY=0.75;entryDx=0;entryDy=0;" edge="1" parent="1" source="1sgx2hkNMydAJYxef51p-5" target="1sgx2hkNMydAJYxef51p-51">
          <mxGeometry relative="1" as="geometry">
            <Array as="points">
              <mxPoint x="1400" y="1560" />
            </Array>
          </mxGeometry>
        </mxCell>
        <mxCell id="1sgx2hkNMydAJYxef51p-32" value="Update" style="edgeStyle=orthogonalEdgeStyle;elbow=vertical;rounded=0;endArrow=blockThin;endFill=1;fontSize=11;entryX=0;entryY=0.5;entryDx=0;entryDy=0;" edge="1" parent="1" source="1sgx2hkNMydAJYxef51p-5" target="1sgx2hkNMydAJYxef51p-5">
          <mxGeometry relative="1" as="geometry">
            <Array as="points">
              <mxPoint x="1050" y="1500" />
              <mxPoint x="1050" y="1530" />
            </Array>
            <mxPoint x="1100" y="1550" as="targetPoint" />
          </mxGeometry>
        </mxCell>
        <mxCell id="1sgx2hkNMydAJYxef51p-34" value="Reply to comment" style="edgeStyle=orthogonalEdgeStyle;elbow=vertical;rounded=0;endArrow=blockThin;endFill=1;fontSize=11" edge="1" parent="1" source="1sgx2hkNMydAJYxef51p-8" target="1sgx2hkNMydAJYxef51p-8">
          <mxGeometry relative="1" as="geometry" />
        </mxCell>
        <mxCell id="1sgx2hkNMydAJYxef51p-42" style="edgeStyle=orthogonalEdgeStyle;rounded=0;orthogonalLoop=1;jettySize=auto;html=1;exitX=0;exitY=0.25;exitDx=0;exitDy=0;entryX=0;entryY=0.75;entryDx=0;entryDy=0;" edge="1" parent="1" source="1sgx2hkNMydAJYxef51p-46" target="1sgx2hkNMydAJYxef51p-46">
          <mxGeometry relative="1" as="geometry">
            <Array as="points">
              <mxPoint x="880" y="1407" />
              <mxPoint x="880" y="1427" />
            </Array>
          </mxGeometry>
        </mxCell>
        <mxCell id="1sgx2hkNMydAJYxef51p-43" value="Send Agreement" style="text;html=1;resizable=0;points=[];align=center;verticalAlign=middle;labelBackgroundColor=#ffffff;" vertex="1" connectable="0" parent="1sgx2hkNMydAJYxef51p-42">
          <mxGeometry x="-0.269" relative="1" as="geometry">
            <mxPoint x="-9" as="offset" />
          </mxGeometry>
        </mxCell>
        <mxCell id="1sgx2hkNMydAJYxef51p-44" style="edgeStyle=orthogonalEdgeStyle;rounded=0;orthogonalLoop=1;jettySize=auto;html=1;exitX=0.75;exitY=1;exitDx=0;exitDy=0;entryX=0.25;entryY=0;entryDx=0;entryDy=0;" edge="1" parent="1" source="1sgx2hkNMydAJYxef51p-46" target="1sgx2hkNMydAJYxef51p-5">
          <mxGeometry relative="1" as="geometry">
            <Array as="points">
              <mxPoint x="1090" y="1420" />
              <mxPoint x="1152" y="1420" />
            </Array>
          </mxGeometry>
        </mxCell>
        <mxCell id="1sgx2hkNMydAJYxef51p-45" value="Agreement Signed" style="text;html=1;resizable=0;points=[];align=center;verticalAlign=middle;labelBackgroundColor=#ffffff;" vertex="1" connectable="0" parent="1sgx2hkNMydAJYxef51p-44">
          <mxGeometry x="0.1529" y="-2" relative="1" as="geometry">
            <mxPoint x="-9.7" y="28.700000000000003" as="offset" />
          </mxGeometry>
        </mxCell>
        <UserObject label="%name%" name="Waiting for signed agreement" placeholders="1" id="1sgx2hkNMydAJYxef51p-46">
          <mxCell style="label,whiteSpace=wrap,html=1,sharp=1" vertex="1" parent="1">
            <mxGeometry x="940" y="1397" width="200" height="40" as="geometry" />
          </mxCell>
        </UserObject>
        <mxCell id="1sgx2hkNMydAJYxef51p-47" style="edgeStyle=orthogonalEdgeStyle;rounded=0;orthogonalLoop=1;jettySize=auto;html=1;exitX=0;exitY=0.25;exitDx=0;exitDy=0;entryX=1;entryY=0.25;entryDx=0;entryDy=0;" edge="1" parent="1" source="1sgx2hkNMydAJYxef51p-51" target="1sgx2hkNMydAJYxef51p-5">
          <mxGeometry relative="1" as="geometry" />
        </mxCell>
        <mxCell id="1sgx2hkNMydAJYxef51p-48" value="Resubmit" style="text;html=1;align=center;verticalAlign=middle;resizable=0;points=[];labelBackgroundColor=#ffffff;" vertex="1" connectable="0" parent="1sgx2hkNMydAJYxef51p-47">
          <mxGeometry x="0.3765" y="4" relative="1" as="geometry">
            <mxPoint x="16" y="-4" as="offset" />
          </mxGeometry>
        </mxCell>
        <UserObject label="%name%" name="Reopend" placeholders="1" id="1sgx2hkNMydAJYxef51p-51">
          <mxCell style="label,whiteSpace=wrap,html=1,sharp=1" vertex="1" parent="1">
            <mxGeometry x="1400" y="1480" width="200" height="100" as="geometry" />
          </mxCell>
        </UserObject>
      </root>
    </mxGraphModel>
  </diagram>
</mxfile>
